# xmcd
#
# Track frame offsets: 
#        300
#        12726
#        24866
#        37758
#        49139
#        60910
#        79366
#        96359
#        110331
#        129768
#        144833
#        157126
#        170206
#        178642
#        202730
#
# Disc length: 2872 seconds
#
# Revision: 4
# Processed by: cddbd v1.5.2PL0 Copyright (c) Steve Scherf et al.
# Submitted via: ExactAudioCopy v1.0b1
#
DISCID=be0b340f
DTITLE=T-Bone Walker - T-Bone Blues
DYEAR=1989
DGENRE=Blues
TTITLE0=Papa Ain't Salty
TTITLE1=Why Not
TTITLE2=T-Bone Shuffle
TTITLE3=Play On Little Girl
TTITLE4=T-Bone Blues Special
TTITLE5=Mean Old World
TTITLE6=T-Bone Blues
TTITLE7=Call It Stormy Monday
TTITLE8=Blues For Marili
TTITLE9=Shufflin' The Blues
TTITLE10=Evenin'
TTITLE11=Two Bones And A Pick
TTITLE12=You Don't Know What You're Doing
TTITLE13=How Long Blues
TTITLE14=Blues Rock
EXTD=
EXTT0=
EXTT1=
EXTT2=
EXTT3=
EXTT4=
EXTT5=
EXTT6=
EXTT7=
EXTT8=
EXTT9=
EXTT10=
EXTT11=
EXTT12=
EXTT13=
EXTT14=
PLAYORDER=
